<svg width="219" height="141" viewBox="0 0 219 141" xmlns="http://www.w3.org/2000/svg"><g id="svgGroup" stroke-linecap="round" fill-rule="nonzero" font-size="9pt" stroke="#000" stroke-width="1.0mm" fill="#f4eae0" style="stroke:#000;stroke-width:1.0mm;fill:#f4eae0"><path d="M 45.75 141 L 0 141 L 0 0 L 45.75 0 L 45.75 21 L 22.5 21 L 22.5 120 L 45.75 120 L 45.75 141 Z" id="0"/><path d="M 111 124.5 L 74.4 124.5 L 74.4 15 L 109.65 15 Q 126.3 15 136.2 22.575 A 24.051 24.051 0 0 1 145.945 39.908 A 31.211 31.211 0 0 1 146.1 43.05 Q 146.1 50.25 142.725 55.65 Q 139.35 61.05 133.725 64.05 Q 128.1 67.05 121.5 67.05 L 121.5 67.5 Q 126.559 67.397 131.014 68.715 A 27.692 27.692 0 0 1 134.925 70.2 Q 141 73.05 144.75 78.75 A 22.113 22.113 0 0 1 147.881 86.471 A 31.221 31.221 0 0 1 148.5 92.85 A 33.929 33.929 0 0 1 147.358 101.823 A 27.832 27.832 0 0 1 143.925 109.575 Q 139.35 116.7 130.95 120.6 A 40.293 40.293 0 0 1 121.136 123.643 Q 116.414 124.5 111 124.5 Z M 96.15 76.8 L 96.15 106.35 L 110.1 106.35 Q 117.45 106.35 121.65 102.45 A 12.808 12.808 0 0 0 125.499 95.388 A 18.939 18.939 0 0 0 125.85 91.65 A 18.305 18.305 0 0 0 125.308 87.068 A 12.915 12.915 0 0 0 121.65 80.775 Q 117.45 76.8 110.1 76.8 L 96.15 76.8 Z M 96.15 33.15 L 96.15 59.1 L 109.35 59.1 A 19.932 19.932 0 0 0 113.551 58.683 Q 116.259 58.1 118.306 56.697 A 11.639 11.639 0 0 0 119.7 55.575 A 11.676 11.676 0 0 0 123.244 48.727 A 16.714 16.714 0 0 0 123.45 46.05 A 16.181 16.181 0 0 0 123.007 42.15 A 10.902 10.902 0 0 0 119.7 36.525 A 12.482 12.482 0 0 0 114.579 33.796 Q 112.677 33.271 110.414 33.173 A 24.484 24.484 0 0 0 109.35 33.15 L 96.15 33.15 Z" id="1"/><path d="M 219 141 L 173.25 141 L 173.25 120 L 196.5 120 L 196.5 21 L 173.25 21 L 173.25 0 L 219 0 L 219 141 Z" id="2"/></g></svg>